<?xml version="1.0" standalone="no"?>
<!DOCTYPE svg PUBLIC "-//W3C//DTD SVG 20010904//EN"
 "http://www.w3.org/TR/2001/REC-SVG-20010904/DTD/svg10.dtd">
<svg version="1.0" xmlns="http://www.w3.org/2000/svg"
 width="300px" height="510px" viewBox="0 0 385.000000 648.000000"
 preserveAspectRatio="xMidYMid meet">

<g transform="translate(0.000000,648.000000) scale(0.100000,-0.100000)"
fill="#000000" stroke="none">
<path d="M2594 6261 c-29 -24 -48 -67 -39 -88 4 -10 9 -31 9 -48 2 -43 30 -45
56 -3 11 18 20 40 20 49 0 9 9 28 21 43 27 34 18 63 -20 63 -15 0 -36 -7 -47
-16z"/>
<path d="M1845 6185 c-16 -7 -45 -19 -62 -25 -18 -7 -33 -17 -33 -22 0 -5 5
-6 10 -3 6 3 10 2 10 -3 0 -5 -18 -21 -40 -36 -22 -14 -40 -33 -40 -41 0 -8
-5 -15 -11 -15 -5 0 -8 -4 -5 -9 3 -5 -5 -20 -19 -35 -21 -22 -23 -30 -13 -46
7 -10 15 -18 19 -17 12 3 11 -17 0 -21 -6 -2 -11 1 -11 7 0 6 -9 11 -19 11
-11 0 -23 5 -26 10 -3 6 -13 10 -21 10 -8 0 -12 -4 -9 -10 3 -5 -1 -10 -9 -10
-9 0 -39 -16 -67 -37 -45 -32 -50 -39 -45 -65 3 -16 1 -28 -4 -28 -6 0 -16
-11 -22 -25 -8 -19 -17 -24 -32 -19 -15 4 -17 3 -8 -4 11 -7 11 -10 -2 -15
-21 -8 -21 -44 0 -64 9 -9 11 -19 6 -22 -5 -3 -6 -15 -2 -26 7 -18 8 -19 15
-2 12 30 24 18 19 -19 -4 -32 -2 -35 11 -24 13 11 19 10 33 -3 15 -16 15 -17
-1 -17 -9 0 -17 -4 -17 -9 0 -23 -74 3 -114 40 -17 16 -22 17 -35 5 -9 -7 -22
-11 -28 -9 -7 3 -13 -1 -13 -8 0 -8 -7 -3 -16 9 -18 25 -11 44 13 35 12 -5 15
-2 10 10 -7 18 -1 20 50 17 23 -1 31 3 29 14 -3 23 -49 73 -54 58 -2 -7 -8
-12 -13 -12 -6 0 -7 5 -3 12 4 7 3 8 -4 4 -6 -4 -9 -13 -6 -20 4 -10 -20 -30
-33 -27 -11 3 -53 -46 -49 -56 3 -7 0 -12 -6 -10 -6 1 -15 -9 -19 -23 -9 -25
-9 -25 -5 3 5 42 -8 32 -27 -20 -18 -53 -16 -178 4 -197 7 -8 10 -1 8 24 -5
63 2 137 10 116 9 -22 90 -34 102 -14 9 14 49 19 49 6 0 -18 -28 -74 -43 -87
-23 -19 -21 -5 4 30 11 16 16 29 10 29 -6 0 -11 -4 -11 -9 0 -5 -16 -30 -35
-55 -29 -39 -33 -50 -25 -71 10 -25 30 -35 30 -13 0 6 3 8 6 5 4 -4 2 -12 -4
-20 -13 -15 -4 -31 21 -40 15 -6 22 3 18 26 0 4 11 7 25 7 19 0 25 -4 20 -15
-6 -18 -5 -18 28 -6 22 9 26 7 34 -18 14 -39 -1 -62 -24 -39 -16 16 -16 18 -1
24 9 3 17 10 17 15 0 15 -37 10 -50 -6 -7 -8 -19 -15 -26 -15 -8 0 -14 -10
-15 -22 0 -13 -3 -17 -6 -10 -7 18 -31 15 -43 -7 -15 -29 -12 -38 6 -15 14 18
15 18 8 -6 -6 -21 -5 -23 8 -12 13 10 17 10 22 -4 11 -29 6 -36 -21 -30 -16 3
-22 3 -15 0 6 -3 9 -10 6 -16 -4 -6 2 -8 17 -3 36 11 52 26 39 39 -5 5 -10 15
-10 20 0 6 5 5 12 -2 7 -7 27 -12 45 -12 18 0 33 -5 33 -11 0 -6 9 -22 20 -36
12 -16 20 -20 20 -11 0 8 -4 18 -10 24 -5 5 -6 15 0 24 5 8 10 12 12 10 2 -3
11 -18 20 -35 22 -39 32 -38 36 5 2 27 0 31 -8 20 -8 -13 -11 -12 -16 7 -3 12
-15 25 -25 28 -25 8 -24 22 1 35 14 7 20 7 20 0 0 -5 11 -20 25 -32 14 -12 25
-30 25 -39 0 -24 72 -147 78 -131 2 6 -4 19 -12 28 -9 8 -16 24 -16 35 0 11
-9 30 -20 41 -13 15 -17 25 -10 32 18 18 11 44 -12 48 -12 2 -23 9 -26 16 -2
8 3 10 15 7 11 -4 9 -1 -4 6 -28 15 -30 29 -3 22 27 -7 25 0 -10 35 -16 17
-30 36 -30 42 0 6 12 -3 28 -21 l27 -33 6 50 c3 27 2 51 -3 52 -4 2 -8 17 -8
32 l0 29 25 -25 c14 -14 29 -23 34 -20 5 4 7 -3 4 -14 -4 -14 0 -20 10 -20 9
0 20 -7 25 -16 6 -12 18 -15 36 -12 15 3 29 1 32 -3 3 -5 15 -9 27 -9 l22 -1
-24 -19 c-13 -11 -38 -20 -56 -20 -27 0 -34 5 -40 28 -7 25 -8 25 -15 7 -14
-34 -12 -58 5 -51 17 6 21 -9 5 -19 -13 -8 -7 -54 14 -94 11 -21 14 -36 8 -40
-17 -11 -19 -56 -2 -56 8 0 15 -9 15 -20 0 -11 4 -26 8 -32 5 -7 5 -18 2 -23
-4 -6 -1 -18 6 -26 6 -8 9 -17 6 -21 -4 -3 -9 2 -13 11 -8 22 -31 20 -44 -4
-9 -17 -6 -24 15 -44 l26 -25 20 20 c13 13 20 32 19 52 -3 47 -1 54 10 37 9
-13 12 -13 24 3 18 24 43 21 52 -5 4 -13 7 -25 6 -28 0 -3 7 -13 16 -23 15
-17 17 -17 28 -2 11 15 13 14 19 -6 7 -21 7 -21 31 6 18 21 24 24 24 12 0 -10
-5 -17 -10 -17 -13 0 -1 -52 14 -62 6 -4 19 -5 30 -2 12 4 16 2 11 -5 -4 -7
-1 -18 5 -26 10 -12 8 -16 -11 -23 l-23 -9 26 -6 c15 -4 38 -3 52 3 14 5 26 7
26 4 0 -2 10 0 21 7 15 8 19 8 15 0 -9 -14 0 -14 26 0 15 8 19 8 14 0 -4 -6
-1 -11 8 -11 8 0 16 -4 18 -10 4 -13 39 -13 118 0 59 10 72 8 147 -15 69 -22
84 -31 95 -56 7 -16 20 -29 28 -29 9 0 25 -7 36 -15 12 -8 23 -12 26 -10 8 8
95 -79 91 -91 -2 -6 3 -17 12 -24 8 -7 15 -20 15 -29 0 -9 14 -27 30 -40 17
-13 30 -31 30 -41 0 -16 16 -26 72 -44 9 -2 24 -16 33 -30 15 -23 15 -27 -2
-56 -10 -18 -23 -42 -30 -54 -7 -12 -31 -30 -55 -40 -24 -10 -53 -28 -65 -38
-17 -16 -39 -21 -100 -24 -109 -4 -144 -13 -174 -41 -22 -20 -27 -35 -31 -92
-7 -88 -37 -150 -109 -222 -46 -46 -69 -60 -128 -79 -92 -29 -103 -45 -25 -36
72 9 126 39 184 103 25 26 66 65 92 85 44 35 48 37 57 20 12 -23 12 -60 -1
-89 -9 -19 -4 -123 16 -306 4 -42 -49 -97 -95 -98 -19 0 -43 -4 -54 -8 -12 -5
-39 -1 -70 10 -52 18 -124 27 -140 17 -6 -3 -27 -8 -47 -12 -27 -5 -38 -12
-38 -25 0 -23 31 -51 56 -51 10 0 42 -11 69 -25 28 -13 57 -25 66 -25 9 0 16
-6 17 -12 0 -7 4 -23 7 -35 7 -21 4 -23 -30 -23 -21 0 -52 9 -69 19 -17 11
-53 22 -81 26 l-50 6 30 -26 c17 -14 44 -33 60 -42 17 -9 43 -27 59 -40 18
-15 35 -21 47 -18 15 5 19 1 19 -19 0 -14 -5 -28 -11 -31 -6 -4 -8 -14 -5 -22
4 -9 -1 -17 -14 -20 -11 -3 -20 -10 -20 -15 0 -5 -29 -8 -67 -6 l-67 3 -8 -40
c-11 -53 -28 -85 -46 -85 -8 0 -27 -14 -44 -32 -31 -33 -71 -58 -94 -58 -20 0
-26 -16 -10 -29 10 -9 23 -3 56 26 24 21 82 62 129 91 88 54 380 202 399 202
6 0 17 8 24 18 15 22 92 72 109 72 7 0 17 7 23 15 6 9 23 17 36 17 14 1 28 6
31 11 4 5 12 7 18 3 13 -8 5 -161 -11 -190 -13 -24 -38 -51 -38 -40 0 4 -20
-14 -45 -39 -25 -26 -45 -51 -45 -57 0 -5 -4 -10 -8 -10 -5 0 -19 -18 -31 -40
-20 -37 -56 -83 -123 -161 -13 -15 -36 -43 -53 -64 -16 -20 -51 -60 -77 -89
-26 -28 -48 -56 -48 -63 0 -7 -7 -16 -15 -20 -12 -7 -13 -15 -3 -46 6 -20 17
-37 25 -37 7 0 13 -4 13 -8 0 -5 23 -32 50 -60 28 -28 50 -59 50 -68 0 -18
-55 -100 -83 -124 -11 -9 -20 -28 -20 -44 -2 -22 -22 -47 -84 -106 -46 -43
-97 -85 -115 -94 -17 -9 -29 -13 -25 -10 3 3 -22 41 -57 83 -76 92 -117 165
-188 336 -73 173 -107 343 -89 441 6 35 19 80 28 99 l17 35 -40 34 c-37 32
-64 37 -64 12 -1 -27 -72 -84 -110 -88 -3 0 -16 -5 -30 -10 -14 -6 -32 -11
-40 -12 -27 -4 -70 -29 -70 -41 0 -7 -9 -19 -21 -26 -11 -8 -21 -21 -22 -29
-3 -20 -16 -40 -27 -40 -5 0 -26 17 -47 38 -47 48 -108 93 -119 90 -20 -5
-103 16 -150 38 -29 13 -87 57 -131 97 -43 39 -103 92 -133 117 -68 56 -140
128 -160 158 -8 13 -26 36 -39 50 -24 26 -24 26 -19 4 5 -19 3 -22 -14 -16
-14 4 -18 2 -14 -5 9 -14 0 -14 -27 0 -34 19 -60 47 -52 58 12 21 -27 24 -81
7 -29 -9 -56 -22 -60 -28 -4 -6 -9 -47 -10 -91 -2 -44 -6 -82 -9 -85 -2 -2
-20 13 -40 33 -30 33 -35 44 -35 86 0 54 -3 56 -82 43 l-38 -7 0 -1623 0
-1624 829 0 828 0 7 43 c15 88 46 343 46 371 0 16 8 48 19 70 10 23 24 61 31
86 13 51 67 151 150 285 31 50 67 111 79 137 20 43 76 108 91 108 16 0 40 -41
75 -125 42 -103 122 -264 160 -325 14 -23 41 -75 60 -116 59 -128 183 -300
324 -447 l84 -87 533 0 534 0 0 265 c0 293 2 282 -69 380 -35 49 -120 135
-132 135 -26 0 -206 317 -405 712 -35 70 -92 169 -127 220 -85 125 -89 132
-97 207 -6 56 -19 89 -91 221 -46 85 -95 179 -110 208 -34 69 -76 111 -162
164 -38 24 -82 53 -98 66 -16 13 -45 28 -64 33 -19 6 -35 15 -35 21 0 11 32
50 126 151 58 62 81 102 109 185 9 29 42 92 74 140 96 147 101 158 116 239 7
43 25 116 38 163 23 78 28 87 65 110 38 23 82 69 82 85 0 4 -23 -12 -52 -34
-28 -23 -52 -40 -53 -39 -2 2 1 28 6 58 8 50 7 57 -12 73 -12 9 -35 17 -52 17
l-30 0 6 73 c7 79 27 145 59 189 24 35 21 39 -35 49 -30 6 -20 7 33 3 55 -3
90 -12 130 -32 l55 -27 -4 -77 c-2 -52 1 -78 8 -78 6 0 11 10 11 22 l0 22 16
-22 c15 -21 15 -25 0 -40 -8 -10 -22 -33 -31 -52 -8 -19 -22 -45 -31 -57 -9
-13 -13 -23 -8 -23 10 0 70 92 99 150 10 19 24 43 33 53 8 9 16 26 17 36 1 11
7 26 14 35 12 14 6 20 -50 45 -35 16 -97 39 -136 51 -40 12 -73 26 -73 31 0
12 22 52 34 60 4 4 12 42 17 85 10 96 26 156 45 167 8 4 14 16 14 25 0 15 -2
15 -10 2 -21 -32 -9 6 15 46 25 43 33 69 34 116 1 25 5 27 59 33 31 4 71 11
88 16 69 21 136 130 132 212 -2 25 -6 43 -9 41 -4 -2 -12 24 -19 59 -16 80
-65 225 -84 246 -7 9 -17 34 -21 56 -4 26 -19 51 -41 72 -19 19 -38 51 -45 76
-6 23 -15 51 -19 62 -5 11 -9 34 -9 52 0 18 -4 40 -9 49 -6 12 -8 0 -6 -37 l4
-54 -13 42 c-14 49 -32 71 -22 28 5 -23 4 -26 -4 -15 -10 13 -11 13 -11 0 -1
-13 -2 -13 -9 0 -14 26 -24 93 -12 85 6 -3 11 -14 12 -23 0 -9 3 -12 5 -5 3 6
-6 40 -19 75 -14 35 -28 76 -31 92 -4 15 -10 26 -13 22 -4 -3 -16 11 -27 32
-12 22 -40 56 -63 76 l-41 37 15 -48 c23 -71 28 -107 14 -99 -6 4 -11 15 -11
24 0 13 -2 13 -15 -4 -14 -18 -15 -17 -10 11 3 17 2 24 -1 17 -4 -8 -18 10
-35 45 -27 52 -28 53 -12 3 6 -17 -26 18 -81 90 -21 28 -40 49 -43 46 -2 -2 5
-16 18 -30 12 -14 30 -44 40 -66 l19 -41 -23 6 c-12 4 -49 25 -83 46 -67 43
-87 49 -59 19 10 -11 15 -20 12 -20 -11 0 -102 45 -105 51 -2 4 -32 4 -68 1
-61 -5 -67 -3 -95 24 -19 18 -28 23 -24 11 9 -23 -18 -23 -41 1 -17 16 -17 17
4 20 26 4 30 22 4 22 -9 0 -34 9 -55 20 -20 11 -45 20 -55 20 -10 0 -24 6 -30
12 -7 7 -20 13 -30 13 -10 0 -18 9 -20 23 -5 30 -52 32 -52 2 0 -16 -4 -18
-17 -11 -23 12 -131 31 -169 30 -16 0 -42 -6 -59 -14z m348 -109 c3 -8 -1 -17
-9 -20 -9 -4 -14 1 -14 14 0 23 15 27 23 6z m-241 -88 c-15 -15 -26 -4 -18 18
5 13 9 15 18 6 9 -9 9 -15 0 -24z m-237 12 c3 -5 -1 -10 -9 -10 -8 0 -18 5
-21 10 -3 6 1 10 9 10 8 0 18 -4 21 -10z m45 -38 c0 -15 -2 -15 -10 -2 -13 20
-13 33 0 25 6 -3 10 -14 10 -23z m1219 -102 c12 -22 21 -55 21 -73 -1 -30 -1
-31 -15 -13 -10 13 -11 23 -5 31 6 7 5 20 -3 36 -17 32 -27 59 -23 59 2 0 13
-18 25 -40z m-1349 -35 c0 4 6 2 14 -4 19 -16 25 -65 9 -79 -13 -12 -26 10
-48 79 -7 21 -6 22 9 10 9 -7 16 -10 16 -6z m1365 -85 c3 -5 1 -10 -4 -10 -6
0 -11 5 -11 10 0 6 2 10 4 10 3 0 8 -4 11 -10z m30 -65 c27 -48 13 -53 -14 -5
-12 22 -18 40 -13 40 5 0 17 -16 27 -35z m-1385 -65 c0 -3 -4 -11 -9 -19 -14
-22 -27 -6 -29 36 l-2 38 20 -25 c11 -14 20 -27 20 -30z m20 -31 c0 -6 -4 -7
-10 -4 -5 3 -10 11 -10 16 0 6 5 7 10 4 6 -3 10 -11 10 -16z m-140 -20 c0 -11
-4 -18 -10 -14 -5 3 -7 12 -3 20 7 21 13 19 13 -6z m177 -21 c-3 -8 -6 -5 -6
6 -1 11 2 17 5 13 3 -3 4 -12 1 -19z m-247 -62 c0 -2 -7 -7 -16 -10 -8 -3 -12
-2 -9 4 6 10 25 14 25 6z m36 -71 l3 -40 -14 33 c-10 22 -21 32 -37 33 -23 1
-23 1 2 9 37 12 42 8 46 -35z m-111 15 c-3 -5 -10 -10 -16 -10 -5 0 -9 5 -9
10 0 6 7 10 16 10 8 0 12 -4 9 -10z m-75 -40 c0 -5 -7 -10 -16 -10 -8 0 -12 5
-9 10 3 6 10 10 16 10 5 0 9 -4 9 -10z m76 -26 c14 -12 15 -14 3 -11 -9 3 -28
-1 -43 -8 -22 -12 -26 -12 -26 0 0 12 25 34 41 35 3 0 14 -7 25 -16z m49 -74
c3 -6 -1 -7 -9 -4 -18 7 -21 14 -7 14 6 0 13 -4 16 -10z m-85 -79 c0 -6 -4
-13 -10 -16 -5 -3 -10 1 -10 9 0 9 5 16 10 16 6 0 10 -4 10 -9z m350 -8 c0 -5
-5 -15 -10 -23 -8 -12 -10 -11 -10 8 0 12 5 22 10 22 6 0 10 -3 10 -7z m90
-173 c19 -17 30 -30 25 -30 -17 0 -75 39 -75 50 0 16 13 11 50 -20z m856 -314
c18 -19 18 -46 -1 -46 -8 0 -15 9 -15 20 0 11 -5 20 -11 20 -5 0 -7 5 -4 10 8
13 14 13 31 -4z m-56 -6 c0 -5 -5 -10 -11 -10 -5 0 -7 5 -4 10 3 6 8 10 11 10
2 0 4 -4 4 -10z m242 -687 c10 -9 18 -24 18 -33 0 -26 -43 -60 -72 -58 l-26 2
19 24 c10 14 19 38 19 53 0 33 15 37 42 12z m-366 -17 c-1 -16 -8 -26 -21 -29
-17 -3 -21 1 -19 22 2 33 1 31 23 31 14 0 18 -7 17 -24z m166 -51 c-8 -25 -16
-44 -18 -43 -6 6 18 88 26 88 4 0 1 -20 -8 -45z m101 -663 c-3 -12 -11 -22
-18 -22 -7 0 -16 -7 -19 -16 -5 -13 -9 -14 -21 -4 -19 16 -19 28 0 46 9 9 23
13 35 9 13 -4 20 -2 20 6 0 7 2 10 5 8 2 -3 2 -15 -2 -27z m-2447 -1397 c-3
-13 -11 -37 -17 -52 l-12 -28 -8 30 c-5 19 -5 31 1 33 6 2 10 12 10 23 0 11 7
19 16 19 12 0 15 -6 10 -25z m144 0 c0 -8 -11 -22 -25 -31 -28 -18 -34 -40 -9
-30 10 4 14 1 12 -6 -3 -7 -12 -14 -21 -16 -26 -5 -22 50 4 67 18 10 19 15 8
22 -11 7 -8 9 9 9 13 0 22 -6 22 -15z m-80 -25 c0 -16 -7 -20 -30 -20 -32 0
-33 1 -24 24 9 24 54 21 54 -4z m1503 -47 c-7 -2 -21 -2 -30 0 -10 3 -4 5 12
5 17 0 24 -2 18 -5z"/>
<path d="M2370 6079 c0 -5 9 -9 20 -9 11 0 20 2 20 4 0 2 -9 6 -20 9 -11 3
-20 1 -20 -4z"/>
<path d="M2839 6045 c17 -32 60 -80 66 -73 3 3 -13 25 -35 49 -23 24 -37 35
-31 24z"/>
<path d="M2820 5990 c6 -11 13 -20 16 -20 2 0 0 9 -6 20 -6 11 -13 20 -16 20
-2 0 0 -9 6 -20z"/>
<path d="M1308 5623 c6 -2 18 -2 25 0 6 3 1 5 -13 5 -14 0 -19 -2 -12 -5z"/>
<path d="M1605 5320 c4 -6 11 -8 16 -5 14 9 11 15 -7 15 -8 0 -12 -5 -9 -10z"/>
<path d="M1564 5157 c3 -10 6 -26 6 -34 0 -13 3 -13 15 -3 16 13 16 33 1 30
-5 -1 -13 4 -18 12 -7 9 -8 8 -4 -5z"/>
<path d="M1340 5120 c0 -5 5 -10 10 -10 6 0 10 -5 10 -10 0 -6 -11 -3 -25 6
-14 9 -25 12 -25 6 0 -6 -9 -9 -20 -7 -12 2 -30 -5 -42 -17 -16 -16 -22 -18
-29 -7 -6 9 -9 10 -9 2 0 -6 -3 -18 -6 -27 -4 -10 -1 -16 9 -16 17 0 32 -34
28 -62 -3 -21 15 -32 23 -13 3 8 1 15 -4 15 -5 0 -7 6 -4 14 3 8 1 17 -5 21
-6 3 -11 14 -11 23 0 15 2 15 10 2 9 -13 12 -12 25 4 11 14 15 16 15 5 0 -11
2 -11 9 -1 6 10 15 4 36 -22 16 -20 33 -36 38 -36 6 0 8 2 5 6 -3 3 -2 22 3
42 5 20 6 45 3 55 -6 20 -44 44 -44 27z m-60 -40 c0 -5 -4 -10 -10 -10 -5 0
-10 5 -10 10 0 6 5 10 10 10 6 0 10 -4 10 -10z m41 -7 c13 -16 12 -17 -3 -4
-10 7 -18 15 -18 17 0 8 8 3 21 -13z"/>
<path d="M1403 5070 c1 -14 4 -16 14 -8 10 8 13 5 13 -13 0 -19 2 -21 10 -9 5
8 10 11 10 5 0 -5 5 -2 11 8 13 23 10 27 -29 31 -25 4 -30 1 -29 -14z"/>
<path d="M1703 4964 c-13 -14 -23 -28 -23 -33 0 -8 72 -51 85 -51 5 0 -6 13
-23 29 -24 23 -27 31 -15 33 18 3 26 49 9 47 -6 -1 -21 -12 -33 -25z"/>
<path d="M1210 4899 c0 -5 -6 -7 -12 -3 -9 5 -8 2 1 -9 8 -10 14 -16 15 -15 1
2 8 11 15 21 12 14 11 17 -3 17 -9 0 -16 -5 -16 -11z"/>
<path d="M1846 4901 c-4 -7 -5 -15 -2 -18 9 -9 19 4 14 18 -4 11 -6 11 -12 0z"/>
<path d="M1556 4891 c-12 -5 -15 -10 -9 -14 6 -4 16 0 23 8 14 17 13 17 -14 6z"/>
<path d="M1200 4846 c0 -9 5 -16 10 -16 6 0 10 4 10 9 0 6 -4 13 -10 16 -5 3
-10 -1 -10 -9z"/>
<path d="M1256 4615 c-3 -8 -12 -15 -21 -15 -8 0 -15 -5 -15 -11 0 -6 -16 -1
-35 11 -19 12 -35 19 -35 16 0 -10 91 -126 99 -126 4 0 12 5 19 12 15 15 16
88 1 88 -6 0 -8 9 -4 20 7 23 0 27 -9 5z"/>
<path d="M1315 4580 c10 -11 20 -18 23 -15 7 6 -18 35 -31 35 -5 0 -2 -9 8
-20z"/>
<path d="M2132 4498 c2 -8 -6 -13 -19 -12 -27 1 -30 -14 -5 -23 9 -4 32 -19
50 -35 34 -29 62 -37 62 -17 0 6 7 9 15 5 8 -3 15 -3 15 -1 0 12 -24 55 -34
59 -6 2 -28 11 -49 20 -27 12 -36 13 -35 4z"/>
<path d="M2262 4443 c19 -20 25 -35 21 -54 -3 -18 0 -28 11 -32 12 -5 16 0 16
21 1 23 2 25 13 11 7 -8 22 -18 35 -22 18 -4 22 -2 18 10 -4 11 -2 13 9 9 20
-7 19 8 -1 28 -9 9 -32 16 -55 16 -21 0 -39 4 -39 8 0 5 -12 14 -27 21 l-28
13 27 -29z"/>
<path d="M1823 4310 c-124 -5 -139 -12 -80 -37 37 -17 34 -33 -7 -33 -44 0
-48 -7 -32 -54 10 -29 15 -34 20 -21 4 12 14 16 29 13 17 -3 29 4 48 28 15 21
39 37 66 44 85 24 224 16 327 -20 52 -17 66 -17 66 2 0 4 -30 22 -67 39 -80
37 -173 47 -370 39z m262 -20 c3 -5 1 -10 -4 -10 -6 0 -11 5 -11 10 0 6 2 10
4 10 3 0 8 -4 11 -10z"/>
<path d="M1120 4244 c0 -31 25 -64 49 -64 18 0 4 40 -25 70 l-24 25 0 -31z"/>
<path d="M1930 4230 c0 -5 5 -10 11 -10 7 0 22 -11 34 -25 20 -20 21 -26 9
-36 -11 -9 -17 -9 -29 1 -8 7 -13 16 -10 20 3 5 1 11 -5 15 -5 3 -10 -1 -10
-9 0 -8 4 -17 10 -21 5 -3 7 -12 4 -20 -8 -19 12 -52 35 -58 10 -2 36 5 57 17
29 16 41 31 49 60 l11 38 35 -34 c18 -19 42 -46 51 -59 l17 -24 1 23 c0 13 4
20 10 17 13 -8 13 11 -2 51 -12 34 -47 52 -60 31 -7 -11 -12 -3 -9 16 0 4 -3
7 -9 7 -5 0 -10 -7 -10 -15 0 -13 -6 -12 -40 5 -42 21 -150 29 -150 10z"/>
<path d="M2290 4202 c0 -14 35 -42 53 -42 24 0 21 16 -5 34 -24 17 -48 21 -48
8z"/>
<path d="M1706 4114 c-3 -9 -6 -28 -6 -42 1 -26 1 -26 15 -8 16 22 20 66 6 66
-5 0 -12 -7 -15 -16z"/>
<path d="M2037 4051 c17 -18 33 -42 35 -54 2 -17 11 -23 35 -25 36 -4 102 23
110 45 8 20 -25 52 -48 46 -11 -3 -19 0 -19 7 0 7 -8 9 -22 4 -27 -8 -70 -8
-101 1 -19 6 -18 3 10 -24z"/>
<path d="M1700 3962 c0 -46 4 -71 10 -67 13 8 13 105 0 125 -7 10 -10 -7 -10
-58z"/>
<path d="M2322 3990 c-18 -19 -21 -31 -16 -59 7 -35 7 -36 -13 -18 -20 17 -21
17 -32 -15 -7 -18 -21 -54 -31 -80 -10 -27 -15 -48 -10 -48 7 0 69 79 98 125
23 37 33 69 30 94 l-3 26 -23 -25z"/>
<path d="M1713 3863 c-10 -27 28 -86 79 -119 47 -32 160 -64 224 -64 56 0 38
18 -23 25 -128 13 -207 55 -243 130 -24 50 -28 53 -37 28z"/>
<path d="M3008 3733 c7 -3 16 -2 19 1 4 3 -2 6 -13 5 -11 0 -14 -3 -6 -6z"/>
<path d="M1797 3383 c-15 -4 -17 -11 -11 -36 3 -18 7 -32 8 -32 1 -1 57 -27
69 -33 4 -2 7 6 7 17 0 12 7 24 15 27 8 4 15 10 15 16 0 5 -4 6 -10 3 -5 -3
-21 5 -34 19 -24 26 -27 27 -59 19z"/>
<path d="M422 3342 c-13 -4 -16 -32 -4 -32 5 0 26 9 48 19 l39 19 -36 -1 c-20
0 -41 -3 -47 -5z"/>
<path d="M2175 3112 c-6 -4 -16 -15 -24 -24 -12 -16 -11 -18 7 -18 12 0 22 9
25 22 7 26 5 30 -8 20z"/>
</g>
</svg>
