<?xml version="1.0" standalone="no"?>
<!DOCTYPE svg PUBLIC "-//W3C//DTD SVG 20010904//EN"
 "http://www.w3.org/TR/2001/REC-SVG-20010904/DTD/svg10.dtd">
<svg version="1.0" xmlns="http://www.w3.org/2000/svg"
 width="400px"  height="540px" viewBox="0 0 472.000000 588.000000"
 preserveAspectRatio="xMidYMid meet">

<g transform="translate(0.000000,588.000000) scale(0.100000,-0.100000)"
fill="#000000" stroke="none">
<path d="M1963 5723 c9 -2 17 -9 17 -14 0 -12 37 -12 45 1 10 16 35 12 35 -6
0 -12 -3 -14 -13 -6 -14 12 -37 -7 -50 -42 -7 -18 -8 -18 -27 -1 -18 16 -21
17 -45 1 -14 -9 -24 -22 -22 -29 1 -8 -12 -13 -38 -14 -22 0 -30 1 -18 4 21 4
41 38 29 50 -11 11 -88 -31 -133 -72 -29 -27 -62 -46 -92 -53 -75 -19 -249
-42 -265 -36 -12 4 -16 0 -16 -15 0 -30 -75 -101 -137 -131 -40 -19 -52 -30
-53 -48 0 -12 6 -25 14 -28 21 -8 9 -37 -31 -75 -20 -18 -42 -48 -49 -66 -22
-51 -18 -188 7 -253 35 -94 39 -112 28 -126 -14 -17 -6 -28 36 -48 35 -17 36
-19 30 -59 -8 -57 27 -232 60 -297 14 -28 36 -55 48 -59 12 -5 23 -8 25 -6 1
1 -4 21 -13 44 -16 46 -14 126 3 143 8 8 13 7 16 -3 13 -36 66 -235 66 -247 0
-8 6 -28 14 -45 8 -18 20 -50 27 -72 14 -45 39 -69 89 -86 19 -7 45 -23 57
-35 12 -13 29 -24 38 -24 8 0 15 -9 15 -20 0 -30 19 -24 26 8 4 15 11 32 16
38 13 17 12 134 -1 168 -7 16 -9 37 -6 47 9 28 -17 15 -44 -22 -13 -17 -25
-28 -28 -25 -5 5 29 59 54 84 8 8 13 39 13 78 0 64 18 144 32 144 5 0 8 8 8
19 0 10 8 29 18 42 10 13 32 48 47 77 22 41 36 55 58 59 16 3 38 19 50 34 11
16 29 29 38 29 10 0 21 5 24 10 4 6 10 8 15 5 5 -3 12 0 15 5 4 6 18 16 32 21
14 5 27 18 30 29 3 11 14 22 24 25 10 4 19 13 19 20 0 8 14 22 30 32 17 9 30
23 30 30 0 15 36 54 43 46 5 -5 48 17 58 30 15 21 229 126 308 152 25 9 55 20
66 25 67 30 158 35 204 11 11 -6 28 -11 39 -11 30 0 108 -75 146 -140 49 -83
102 -231 116 -325 7 -44 17 -86 23 -92 7 -10 -11 -13 -87 -13 -109 0 -199 -22
-189 -46 3 -8 0 -14 -6 -14 -6 0 -11 5 -11 10 0 17 -20 11 -67 -21 -37 -26
-57 -32 -112 -35 -36 -2 -84 -6 -107 -9 -22 -3 -54 -1 -70 5 -20 8 -30 8 -32
1 -5 -14 -32 -15 -32 -1 0 14 -73 25 -78 11 -2 -6 -8 -11 -13 -11 -6 0 -8 4
-4 9 3 6 -4 15 -17 22 -47 25 -341 -21 -431 -68 -32 -17 -32 -17 -8 -23 37 -8
36 -26 -1 -40 -18 -6 -42 -16 -53 -20 -20 -8 -20 -9 1 -9 31 -1 53 -31 73
-102 23 -81 61 -169 72 -169 14 0 11 20 -11 80 -11 30 -20 67 -20 82 0 17 -8
33 -20 40 -25 16 -26 48 -1 55 11 3 22 15 25 28 9 37 82 99 124 107 20 4 51
10 67 14 38 8 23 -8 -25 -26 -52 -21 -82 -64 -37 -54 49 12 70 12 93 2 13 -6
24 -14 24 -18 0 -3 -26 -14 -57 -24 -53 -17 -143 -69 -143 -83 0 -3 12 -2 26
1 24 6 25 6 10 -9 -9 -9 -16 -19 -16 -21 0 -12 38 17 59 45 28 36 99 66 136
57 44 -11 26 -37 -40 -58 -33 -11 -67 -25 -75 -32 -18 -16 -51 -30 -65 -28 -5
1 -21 -7 -35 -18 -39 -30 -16 -39 68 -27 68 9 74 9 92 -11 28 -29 25 -44 -7
-41 -46 3 -83 -1 -83 -9 0 -4 9 -8 21 -9 12 -1 27 -10 34 -20 10 -13 31 -18
82 -21 60 -4 78 0 128 23 62 30 131 87 122 102 -3 5 -1 15 4 23 14 23 28 -6
30 -60 l1 -45 14 40 14 40 -5 -40 c-9 -71 -25 -114 -55 -144 -27 -26 -27 -28
-7 -23 12 3 30 15 39 26 30 36 74 188 77 268 1 24 29 48 56 48 19 0 37 -21 94
-114 39 -63 87 -128 106 -145 35 -30 134 -67 158 -58 6 2 -1 8 -18 12 -38 10
-112 60 -125 85 -13 25 -14 25 54 -1 49 -19 61 -20 103 -10 46 12 93 44 93 64
0 5 -7 7 -15 3 -14 -5 -45 38 -45 62 0 12 49 22 55 11 7 -10 62 -22 74 -15 11
7 -40 116 -63 135 -28 23 -18 34 24 28 38 -5 40 -4 40 20 0 21 2 23 15 13 18
-15 20 -9 30 63 6 48 7 49 27 30 12 -10 29 -37 40 -60 10 -24 22 -43 26 -43 4
0 6 -42 5 -92 l-1 -93 9 75 c17 134 -12 237 -77 270 -25 13 -29 20 -26 53 2
21 -4 69 -12 107 -24 104 -21 229 6 285 20 41 21 50 10 102 -6 31 -20 73 -30
92 -87 166 -161 272 -261 371 -59 58 -172 123 -198 113 -22 -8 -1 -25 55 -44
37 -12 48 -21 50 -40 2 -22 1 -23 -11 -6 -8 9 -17 17 -21 17 -9 0 -3 -60 6
-66 11 -7 10 -24 -1 -24 -5 0 -16 6 -23 13 -7 7 -31 23 -53 35 -32 18 -35 19
-18 3 43 -36 10 -30 -36 7 -25 21 -58 44 -73 51 -16 8 -28 18 -28 22 0 11 -55
39 -89 47 -30 6 -555 12 -528 5z m140 -90 c-3 -7 1 -13 8 -13 11 0 11 -2 0
-12 -11 -10 -14 -10 -18 0 -3 6 -9 12 -14 12 -6 0 -7 -4 -4 -10 3 -5 1 -10 -4
-10 -6 0 -11 3 -12 8 0 4 -2 15 -4 25 -3 13 3 17 25 15 18 -1 26 -7 23 -15z
m507 -25 c0 -18 -17 -7 -29 19 -13 28 -13 28 8 9 12 -11 21 -23 21 -28z m-430
22 c0 -5 -2 -10 -4 -10 -3 0 -8 5 -11 10 -3 6 -1 10 4 10 6 0 11 -4 11 -10z
m-30 -16 c0 -8 -5 -12 -10 -9 -6 4 -8 11 -5 16 9 14 15 11 15 -7z m360 1 c16
-19 1 -19 -24 0 -16 12 -17 15 -4 15 8 0 21 -7 28 -15z m-690 -5 c0 -5 -6 -10
-14 -10 -14 0 -46 -36 -46 -52 0 -12 38 -10 45 2 4 6 11 8 16 4 14 -8 -25 -44
-48 -44 -24 0 -43 42 -31 65 6 9 24 23 42 31 38 16 36 16 36 4z m370 -20 c0
-5 -8 -10 -17 -10 -15 0 -16 2 -3 10 19 12 20 12 20 0z m-532 -82 c-6 -18 -28
-21 -28 -4 0 9 7 16 16 16 9 0 14 -5 12 -12z m570 -45 c-10 -2 -28 -2 -40 0
-13 2 -5 4 17 4 22 1 32 -1 23 -4z m-855 -71 c-4 -24 -3 -25 8 -8 8 14 13 15
19 6 9 -14 -26 -60 -46 -60 -20 0 -61 41 -46 46 6 3 12 12 12 20 0 8 7 14 15
14 9 0 18 7 22 16 9 24 21 -2 16 -34z m-113 -113 c0 -5 -7 -9 -15 -9 -8 0 -15
7 -15 15 0 9 6 12 15 9 8 -4 15 -10 15 -15z m695 -30 c11 -16 -5 -25 -16 -9
-7 12 -11 12 -17 2 -8 -12 -64 -32 -89 -32 -29 0 2 30 40 39 58 12 75 13 82 0z
m-725 -64 c10 -12 9 -20 -4 -40 -9 -14 -23 -25 -31 -25 -8 0 -15 -6 -15 -14 0
-7 -7 -20 -17 -27 -15 -13 -15 -12 -5 7 6 11 7 26 3 33 -7 11 -10 11 -15 0 -3
-8 -3 -3 1 11 15 62 55 88 83 55z m-91 -177 c1 -5 -5 -8 -13 -8 -9 0 -12 8 -8
27 5 25 6 25 13 8 4 -11 8 -23 8 -27z m2021 -446 c10 -5 16 -24 18 -56 l3 -49
-42 37 c-24 20 -60 41 -81 47 -21 5 -38 14 -38 19 0 11 117 12 140 2z m-163
-8 c-3 -3 -12 -4 -19 -1 -8 3 -5 6 6 6 11 1 17 -2 13 -5z m68 -204 c3 -6 -1
-7 -9 -4 -18 7 -21 14 -7 14 6 0 13 -4 16 -10z m-35 -80 c-17 -11 -31 6 -23
27 5 12 8 12 22 -2 14 -14 14 -17 1 -25z"/>
<path d="M3245 4100 c-18 -20 -16 -38 3 -26 8 5 24 46 18 46 -2 0 -11 -9 -21
-20z"/>
<path d="M2026 4031 c-7 -10 59 -71 76 -71 7 0 -6 18 -27 40 -44 45 -42 43
-49 31z"/>
<path d="M1422 3996 c-13 -17 -21 -49 -26 -97 -7 -82 5 -109 22 -50 10 33 65
91 86 91 3 0 18 -14 34 -31 16 -17 36 -29 43 -27 9 4 -8 28 -54 72 -37 36 -71
66 -76 66 -5 0 -18 -11 -29 -24z"/>
<path d="M2785 3836 c-16 -13 -34 -21 -40 -18 -5 3 -28 7 -50 8 -22 1 -57 5
-77 9 -42 8 -92 -6 -127 -36 -32 -27 -18 -40 54 -48 30 -3 55 -9 55 -13 0 -5
0 -16 0 -25 0 -15 -2 -16 -10 -3 -13 20 -22 7 -18 -26 3 -26 4 -27 20 -11 20
21 32 21 47 3 9 -11 37 -14 124 -11 102 3 112 5 121 24 6 14 5 29 -1 44 -8 17
-7 28 3 42 19 26 18 49 -4 68 -26 24 -62 21 -97 -7z"/>
<path d="M1607 3843 c-10 -9 -8 -71 2 -77 12 -8 35 50 27 69 -6 16 -18 19 -29
8z"/>
<path d="M3033 3754 c-8 -21 11 -60 37 -74 18 -9 20 -8 20 14 0 56 -41 100
-57 60z"/>
<path d="M3030 3647 c0 -7 -6 -21 -12 -30 -12 -15 -18 -14 -73 5 -33 11 -83
23 -112 25 -47 4 -54 2 -83 -26 -18 -17 -36 -28 -41 -25 -5 2 -19 -2 -32 -10
-28 -19 -147 -33 -147 -17 0 5 8 15 18 21 23 15 -60 4 -91 -12 -50 -25 -59
-29 -102 -35 -41 -5 -45 -4 -45 16 0 17 -4 20 -22 16 -32 -7 -57 10 -40 27 6
6 12 21 12 33 -1 17 -3 15 -17 -9 -18 -34 -19 -131 -2 -152 15 -19 36 -17 47
3 9 14 16 15 68 5 49 -10 61 -10 81 4 18 11 51 15 126 15 57 0 114 -2 128 -6
14 -3 53 1 86 9 66 17 153 21 153 7 0 -17 41 -19 77 -5 22 10 39 12 46 6 7 -6
21 -6 35 -1 19 7 22 16 22 56 0 55 -5 64 -43 81 -35 15 -37 15 -37 -1z m-730
-97 c0 -5 -2 -10 -4 -10 -3 0 -8 5 -11 10 -3 6 -1 10 4 10 6 0 11 -4 11 -10z"/>
<path d="M2685 3373 c-30 -5 -60 -23 -37 -23 16 0 4 -31 -24 -58 -13 -13 -24
-26 -24 -30 0 -13 45 -48 78 -61 17 -8 32 -17 32 -22 0 -5 6 -6 14 -3 8 3 17
0 21 -6 4 -6 16 -8 27 -4 37 11 108 65 109 82 0 9 2 26 4 37 3 12 -6 29 -21
44 -14 12 -23 29 -20 37 4 11 -8 14 -62 13 -37 -1 -80 -4 -97 -6z m25 -33 c0
-5 -9 -10 -20 -10 -11 0 -20 5 -20 10 0 6 9 10 20 10 11 0 20 -4 20 -10z m37
4 c-3 -3 -12 -4 -19 -1 -8 3 -5 6 6 6 11 1 17 -2 13 -5z"/>
<path d="M1970 3149 c0 -5 -4 -7 -10 -4 -5 3 -10 1 -10 -4 0 -6 5 -11 10 -11
6 0 10 -12 10 -27 0 -20 18 -48 58 -94 80 -92 149 -147 245 -197 88 -45 107
-63 107 -99 0 -13 5 -23 10 -23 6 0 10 -11 10 -24 0 -13 9 -34 20 -48 32 -41
53 -109 54 -175 1 -34 6 -67 13 -74 10 -10 9 -15 -3 -23 -8 -6 -16 -28 -18
-48 -2 -21 -11 -48 -20 -62 -15 -23 -15 -26 2 -35 9 -6 11 -11 5 -11 -16 0
-17 -30 -1 -30 6 0 4 -6 -6 -13 -17 -12 -16 -14 7 -24 39 -18 166 -18 207 0
32 14 75 49 177 144 33 30 34 35 27 75 l-7 43 -15 -37 c-18 -47 -33 -49 -31
-5 2 37 -16 87 -31 87 -6 0 -9 15 -7 35 3 20 1 37 -3 40 -4 2 -1 37 7 77 8 40
14 85 14 100 0 15 4 30 9 33 6 4 10 -1 10 -9 0 -21 19 -21 27 0 3 9 0 20 -8
25 -12 8 -11 11 4 20 9 5 17 17 17 24 0 8 6 15 13 15 7 0 20 23 30 51 10 27
27 59 37 69 32 32 43 59 30 75 -6 8 -17 12 -24 9 -7 -3 -18 1 -24 9 -13 16
-221 15 -231 -1 -6 -9 -77 -18 -176 -23 -76 -4 -211 9 -246 24 -19 7 -40 21
-48 30 -7 10 -18 17 -23 17 -6 0 -32 16 -59 36 -27 19 -60 37 -74 38 -15 2
-35 10 -46 19 -22 19 -39 22 -39 6z"/>
<path d="M3050 2302 c0 -21 61 -167 77 -184 21 -23 68 -25 59 -2 -3 9 -6 21
-6 28 0 7 -8 21 -18 32 -10 10 -27 35 -39 54 -26 42 -73 88 -73 72z"/>
<path d="M3280 2241 c0 -5 -3 -16 -6 -24 -6 -18 27 -28 50 -15 10 5 16 5 16 0
0 -6 8 -13 17 -16 13 -5 11 0 -7 19 -13 14 -30 23 -38 20 -7 -2 -11 -1 -8 4 3
5 -1 11 -9 15 -8 3 -15 1 -15 -3z"/>
<path d="M1920 2009 c-34 -18 -34 -19 -8 -19 14 0 29 6 31 13 3 6 6 -3 6 -20
1 -18 -3 -33 -9 -33 -5 0 -10 8 -10 18 -1 16 -1 16 -14 0 -7 -10 -17 -18 -23
-18 -11 0 -11 -45 0 -56 6 -7 11 10 8 29 -1 5 4 7 11 5 8 -3 12 -25 11 -66 -1
-34 3 -62 8 -62 5 0 9 -13 9 -29 0 -16 7 -36 15 -45 8 -8 15 -21 15 -28 0 -10
3 -9 10 2 8 13 10 12 10 -2 0 -10 -7 -18 -15 -18 -8 0 -15 -5 -15 -11 0 -5 5
-7 10 -4 6 3 10 0 10 -7 1 -8 6 -6 15 6 15 19 15 19 15 -1 0 -12 -4 -25 -10
-28 -5 -3 -10 -13 -10 -21 0 -8 5 -12 10 -9 6 3 10 -1 10 -9 0 -8 -4 -17 -9
-21 -6 -3 -9 -14 -8 -25 1 -13 5 -16 13 -9 8 6 14 5 18 -6 3 -8 12 -15 21 -15
8 0 15 -4 15 -10 0 -5 6 -10 14 -10 8 0 16 -7 20 -15 3 -8 12 -12 21 -9 18 7
32 -23 17 -38 -6 -6 -7 -21 -1 -41 12 -44 11 -50 -7 -43 -8 3 -12 2 -9 -4 3
-6 15 -10 26 -10 18 0 25 -25 20 -68 -1 -7 5 -15 13 -18 12 -5 13 -10 5 -26
-9 -17 -18 -19 -50 -15 -26 3 -42 0 -50 -9 -6 -8 -16 -11 -21 -8 -6 4 -6 10 1
17 17 17 14 57 -5 57 -11 0 -14 -8 -12 -32 3 -31 0 -34 -35 -42 -30 -8 -38
-14 -36 -30 3 -43 -1 -58 -14 -53 -8 3 -20 1 -28 -4 -11 -7 -9 -11 11 -16 24
-7 23 -8 -10 -13 -28 -4 -35 -9 -33 -26 4 -36 -74 -67 -97 -39 -15 19 -49 10
-68 -16 -16 -23 -35 -24 -52 -4 -18 22 -50 19 -50 -4 0 -45 -41 -32 -63 19
-11 25 -11 24 -15 -12 -4 -46 -27 -51 -44 -10 -7 15 -19 35 -27 45 -13 16 -13
19 1 33 8 8 30 16 49 16 19 0 39 4 44 8 6 5 20 10 33 12 14 2 32 19 49 47 l25
43 -22 -7 c-19 -6 -22 -4 -17 9 4 10 3 14 -2 11 -5 -3 -13 0 -17 6 -4 8 -9 7
-15 -2 -7 -11 -9 -10 -9 3 0 9 4 19 8 22 5 3 8 21 7 41 0 19 2 35 6 35 4 0 7
10 6 23 0 12 3 40 6 63 7 43 -3 118 -23 174 -7 19 -15 42 -18 50 -4 13 -5 13
-10 0 -3 -8 -13 -22 -24 -31 -12 -11 -18 -30 -18 -56 0 -69 -30 -210 -62 -296
-8 -21 -14 -25 -24 -16 -9 7 -19 7 -32 0 -11 -6 -22 -7 -26 -4 -3 3 -6 1 -6
-5 0 -7 -4 -12 -10 -12 -5 0 -10 10 -10 23 0 13 -9 57 -20 98 -12 46 -15 78
-10 83 6 6 5 16 -4 25 -7 9 -18 39 -23 66 -18 87 -58 208 -69 212 -7 2 -10
-12 -9 -39 1 -24 4 -81 6 -128 3 -52 0 -86 -6 -87 -5 -2 -10 8 -10 22 0 13 -6
30 -12 36 -7 7 -13 19 -13 25 0 16 -13 24 -48 30 -28 5 -55 31 -46 45 2 4 -9
6 -26 4 -16 -2 -30 1 -30 6 0 5 -4 9 -10 9 -5 0 -10 -7 -10 -16 0 -13 -3 -14
-14 -5 -11 9 -17 9 -27 -1 -8 -7 -30 -13 -49 -14 -48 -1 -94 -25 -98 -51 -2
-15 -12 -22 -35 -26 -27 -3 -37 1 -64 31 -25 27 -36 33 -45 24 -9 -9 -7 -13 5
-18 9 -3 17 -11 17 -18 0 -6 -12 1 -25 17 -13 15 -29 27 -35 27 -5 0 -10 7
-10 15 0 20 -26 19 -34 -1 -3 -8 -1 -24 4 -35 6 -10 7 -19 2 -19 -5 0 -7 -12
-4 -27 6 -37 2 -32 -53 62 -26 44 -56 90 -68 103 -21 22 -57 30 -57 12 0 -5 5
-10 10 -10 6 0 10 -6 10 -14 0 -8 8 -17 18 -20 12 -4 23 -24 31 -59 8 -28 17
-57 22 -63 4 -5 6 -20 2 -32 -4 -17 -13 -22 -38 -22 -50 0 -65 -9 -65 -39 0
-15 -9 -37 -20 -49 -11 -12 -20 -28 -20 -37 0 -8 -4 -15 -10 -15 -20 0 -41
-73 -35 -123 5 -34 3 -47 -4 -43 -7 5 -11 -3 -12 -21 l-1 -28 -9 30 c-5 17 -7
35 -4 42 2 7 -5 15 -16 18 -20 7 -24 28 -20 94 3 41 -10 35 -34 -15 -14 -30
-15 -38 -4 -45 11 -7 10 -9 -3 -9 -10 0 -18 -7 -18 -15 0 -8 7 -15 16 -15 8 0
13 -4 9 -10 -3 -5 -13 -6 -22 -3 -14 6 -15 -1 -10 -49 3 -31 1 -60 -4 -65 -11
-11 -27 -157 -23 -213 2 -25 13 -97 24 -160 11 -63 20 -129 20 -146 0 -17 8
-42 18 -55 11 -13 22 -37 27 -54 7 -27 8 -28 15 -10 7 16 9 12 9 -16 1 -28 6
-38 21 -42 12 -3 20 -14 20 -26 0 -12 6 -21 13 -21 11 0 32 -30 65 -95 9 -16
24 -37 34 -46 10 -9 18 -21 18 -28 0 -8 530 -11 2049 -11 l2048 0 -9 53 c-4
28 -10 79 -13 112 -2 33 -9 107 -15 165 -5 58 -12 141 -15 185 -13 184 -111
622 -200 890 -13 39 -13 39 -14 10 -1 -16 -5 -36 -10 -44 -7 -11 -11 -5 -16
23 -4 21 -14 40 -21 43 -9 3 -12 13 -8 28 7 27 -3 65 -17 65 -13 0 -11 -34 3
-48 8 -8 8 -12 1 -12 -6 0 -16 15 -23 33 -18 43 -39 67 -62 67 -12 0 -18 -7
-18 -24 0 -36 -27 -41 -32 -6 -3 16 0 31 6 33 5 2 3 13 -7 27 l-17 24 -6 -32
c-4 -18 -10 -32 -15 -32 -4 0 -10 -9 -14 -20 -5 -15 -12 -18 -35 -14 -22 5
-31 2 -39 -14 -14 -26 -14 -69 -1 -77 12 -7 14 -35 2 -35 -4 0 -13 14 -21 32
-8 17 -30 57 -50 87 -20 31 -40 64 -46 73 -5 9 -36 50 -67 91 -45 59 -63 75
-83 75 -15 0 -29 -6 -32 -14 -7 -18 74 -166 129 -234 61 -74 67 -86 39 -68
-12 7 -21 17 -21 23 0 5 -18 23 -40 39 -22 17 -40 33 -40 37 0 3 -19 24 -41
45 -23 22 -53 50 -65 63 -13 13 -24 21 -24 18 0 -4 -19 14 -42 39 -48 50 -98
81 -98 60 0 -21 31 -77 46 -83 13 -5 94 -127 94 -143 0 -5 10 -17 23 -27 12
-10 38 -39 56 -63 50 -64 134 -150 148 -150 6 0 21 -12 33 -27 20 -26 20 -28
3 -34 -10 -3 -21 -1 -25 5 -10 15 -20 2 -12 -18 3 -9 11 -13 17 -9 6 4 7 1 2
-7 -4 -7 -4 -15 1 -19 8 -5 38 -62 53 -96 2 -5 -7 0 -20 11 -13 12 -36 29 -51
39 -26 16 -28 16 -28 1 0 -10 5 -14 10 -11 6 4 10 -6 10 -22 0 -22 -2 -25 -10
-13 -5 8 -10 10 -10 4 0 -12 -29 -12 -49 0 -7 5 -23 3 -37 -4 -21 -12 -27 -11
-46 6 l-22 19 17 -25 c21 -30 22 -41 3 -34 -8 3 -18 19 -21 35 -7 31 -38 42
-33 12 2 -11 -3 -18 -12 -18 -8 0 -15 7 -15 15 0 23 -37 41 -54 27 -11 -9 -15
-9 -18 1 -5 14 -33 16 -33 2 0 -23 -29 -8 -39 20 -5 17 -13 30 -16 30 -3 0 -3
-4 0 -10 10 -17 -11 -11 -36 9 -21 16 -22 22 -11 45 12 28 15 26 -52 30 -22 1
-32 21 -17 31 6 3 10 23 10 43 -1 35 -2 36 -8 8 l-6 -29 -14 35 c-8 22 -22 38
-35 41 -12 2 -29 8 -38 12 -11 4 -18 3 -18 -4 0 -6 7 -11 15 -11 8 0 15 -7 15
-16 0 -24 -54 -14 -58 11 -6 40 -12 49 -24 37 -7 -7 -17 -8 -29 -1 -10 5 -37
9 -61 8 -62 -3 -126 10 -132 26 -3 8 -32 20 -65 27 -34 6 -61 17 -61 23 0 5
-5 3 -10 -6 -11 -19 -34 -19 -77 1 -20 9 -33 22 -33 33 0 15 3 16 20 7 11 -6
20 -7 20 -2 0 5 -11 14 -25 20 -18 8 -24 8 -22 0 4 -21 -24 -20 -30 1 -3 12
-10 21 -16 21 -5 0 3 10 19 22 16 12 31 25 34 29 3 3 13 6 23 6 12 0 16 -6 12
-18 -10 -30 73 -34 225 -10 37 6 59 5 68 -2 10 -8 16 -7 23 4 7 11 9 11 9 0 0
-8 6 -11 16 -7 8 3 27 -2 41 -11 14 -9 42 -18 63 -19 20 -1 51 -5 69 -9 27 -6
31 -4 31 14 0 14 9 23 28 27 39 10 46 15 31 26 -11 7 -11 11 -1 15 6 2 12 13
12 23 0 10 -6 21 -12 23 -10 4 -10 6 0 6 21 2 13 40 -12 62 -19 17 -23 28 -19
53 5 31 4 32 -32 33 -21 1 -41 7 -45 13 -5 7 -7 2 -7 -13 0 -15 6 -28 16 -31
9 -3 3 -4 -13 -2 -21 3 -40 -4 -65 -24 -20 -16 -77 -49 -128 -75 -98 -50 -145
-59 -276 -56 -56 1 -69 -2 -74 -16 -6 -15 -8 -14 -14 7 l-6 25 -11 -25 c-6
-14 -12 -22 -13 -17 -6 23 -7 28 -8 35 -1 4 -6 0 -12 -8 -7 -11 -12 -12 -15
-3 -3 7 -12 9 -20 6 -10 -4 -12 0 -8 11 6 16 -20 24 -29 9 -2 -5 -2 -3 -1 4 2
7 -39 26 -99 46 -56 20 -158 59 -227 87 -91 38 -139 53 -178 54 -30 1 -56 -2
-59 -7 -3 -5 -8 -5 -12 1 -4 6 -20 2 -41 -9z m37 -241 c-3 -8 -6 -5 -6 6 -1
11 2 17 5 13 3 -3 4 -12 1 -19z m853 12 c8 -5 11 -10 5 -10 -5 0 -17 5 -25 10
-8 5 -10 10 -5 10 6 0 17 -5 25 -10z m-185 -10 c3 -5 -1 -10 -9 -10 -9 0 -16
5 -16 10 0 6 4 10 9 10 6 0 13 -4 16 -10z m-285 -90 c0 -5 -5 -10 -11 -10 -5
0 -7 5 -4 10 3 6 8 10 11 10 2 0 4 -4 4 -10z m120 -52 c0 -4 -4 -10 -10 -13
-5 -3 -10 -1 -10 4 0 6 -4 11 -8 11 -15 0 -11 -88 4 -101 12 -10 13 -6 7 21
-5 27 -3 31 8 25 7 -5 31 -11 52 -13 34 -3 38 -1 33 15 -7 22 18 62 30 50 5
-4 2 -12 -6 -18 -11 -7 -8 -9 14 -7 24 3 30 -2 37 -24 4 -16 3 -30 -2 -34 -5
-3 -9 -16 -9 -30 0 -13 -4 -24 -10 -24 -5 0 -10 9 -10 21 0 16 -4 19 -22 14
-20 -5 -21 -5 -5 5 9 6 15 16 11 21 -4 6 -13 4 -24 -6 -12 -11 -20 -13 -25 -6
-9 16 -55 13 -55 -3 0 -8 6 -16 14 -19 9 -4 13 -19 11 -47 -2 -31 2 -43 16
-51 11 -5 19 -16 19 -24 0 -8 5 -15 10 -15 6 0 10 -7 10 -15 0 -8 7 -15 16
-15 10 0 14 -6 10 -15 -3 -8 1 -18 8 -22 7 -5 24 -26 38 -48 14 -22 32 -46 41
-53 9 -8 19 -28 22 -45 4 -18 15 -41 26 -52 10 -11 35 -54 55 -95 21 -41 47
-88 59 -105 24 -33 39 -101 24 -110 -5 -4 -9 8 -9 24 0 24 -4 31 -20 31 -11 0
-20 6 -20 13 0 8 -12 32 -27 53 -16 22 -37 57 -48 79 -20 40 -51 83 -112 153
-18 20 -28 39 -22 40 5 2 0 16 -11 31 -11 16 -17 30 -15 33 3 3 -11 22 -30 42
-19 21 -35 41 -35 46 0 5 -8 14 -19 19 -10 6 -21 21 -25 33 -3 13 -18 37 -34
53 -43 45 -63 80 -56 98 3 10 -3 20 -17 28 -23 12 -22 12 12 23 28 9 35 9 40
-3 4 -12 7 -12 12 2 3 9 2 17 -3 17 -14 0 -12 28 2 32 14 5 58 -14 58 -24z
m-130 12 c0 -5 -4 -10 -10 -10 -5 0 -10 5 -10 10 0 6 5 10 10 10 6 0 10 -4 10
-10z m50 -11 c0 -6 -4 -7 -10 -4 -5 3 -10 11 -10 16 0 6 5 7 10 4 6 -3 10 -11
10 -16z m255 -49 c3 -5 1 -10 -4 -10 -6 0 -11 5 -11 10 0 6 2 10 4 10 3 0 8
-4 11 -10z m25 -33 c0 -8 -3 -17 -7 -20 -9 -9 -34 13 -27 24 8 14 34 11 34 -4z
m-575 -8 c11 -16 2 -17 -25 -2 -24 12 -24 13 -3 13 12 0 25 -5 28 -11z m626
-26 c13 -16 12 -17 -3 -4 -17 13 -22 21 -14 21 2 0 10 -8 17 -17z m-1898 -93
c-6 -6 -83 81 -83 95 0 5 20 -12 44 -40 24 -27 42 -52 39 -55z m1314 78 c-3
-8 -6 -5 -6 6 -1 11 2 17 5 13 3 -3 4 -12 1 -19z m-1580 -64 c-3 -3 -12 -4
-19 -1 -8 3 -5 6 6 6 11 1 17 -2 13 -5z m-137 -124 c0 -5 -2 -10 -4 -10 -3 0
-8 5 -11 10 -3 6 -1 10 4 10 6 0 11 -4 11 -10z m-5 -60 c3 -5 1 -10 -4 -10 -6
0 -11 5 -11 10 0 6 2 10 4 10 3 0 8 -4 11 -10z m3088 -57 c-7 -2 -19 -2 -25 0
-7 3 -2 5 12 5 14 0 19 -2 13 -5z m-1403 -33 c0 -5 -7 -10 -15 -10 -8 0 -15 5
-15 10 0 6 7 10 15 10 8 0 15 -4 15 -10z m116 -7 c18 -24 17 -44 -1 -37 -8 4
-15 13 -15 22 0 12 -3 13 -12 4 -7 -7 -21 -12 -31 -12 -15 0 -17 3 -8 13 6 8
8 17 4 20 -3 4 6 7 22 7 15 0 34 -8 41 -17z m-196 -3 c0 -5 -4 -10 -10 -10 -5
0 -10 5 -10 10 0 6 5 10 10 10 6 0 10 -4 10 -10z m121 -40 c5 0 9 -7 9 -15 0
-8 -4 -15 -9 -15 -11 0 -21 26 -20 48 1 15 2 15 6 0 2 -10 9 -18 14 -18z
m-201 -50 c0 -5 -4 -10 -10 -10 -5 0 -10 5 -10 10 0 6 5 10 10 10 6 0 10 -4
10 -10z m937 -282 c-3 -8 -6 -5 -6 6 -1 11 2 17 5 13 3 -3 4 -12 1 -19z m63
-77 c12 -24 13 -31 2 -31 -5 0 -14 11 -20 25 -14 29 2 34 18 6z"/>
<path d="M3315 1740 c-3 -5 1 -10 10 -10 9 0 13 5 10 10 -3 6 -8 10 -10 10 -2
0 -7 -4 -10 -10z"/>
<path d="M1939 1688 c4 -28 6 -29 9 -9 2 13 0 27 -5 32 -6 6 -7 -3 -4 -23z"/>
<path d="M570 1691 c0 -11 58 -61 71 -61 14 0 10 16 -8 32 -27 23 -63 40 -63
29z"/>
<path d="M1146 1612 c-2 -4 -1 -14 5 -22 7 -12 9 -10 9 8 0 23 -5 28 -14 14z"/>
<path d="M3245 1570 c-3 -5 -2 -10 4 -10 5 0 13 5 16 10 3 6 2 10 -4 10 -5 0
-13 -4 -16 -10z"/>
<path d="M3335 1550 c-3 -5 -1 -10 4 -10 6 0 11 5 11 10 0 6 -2 10 -4 10 -3 0
-8 -4 -11 -10z"/>
<path d="M3345 1481 c-3 -5 -1 -12 5 -16 5 -3 10 1 10 9 0 18 -6 21 -15 7z"/>
<path d="M397 1413 c-10 -9 -9 -23 2 -23 5 0 11 7 15 15 5 15 -5 20 -17 8z"/>
<path d="M3445 1370 c-3 -5 -1 -10 4 -10 6 0 11 5 11 10 0 6 -2 10 -4 10 -3 0
-8 -4 -11 -10z"/>
<path d="M2092 1300 c0 -19 2 -27 5 -17 2 9 2 25 0 35 -3 9 -5 1 -5 -18z"/>
<path d="M2030 1301 c0 -6 5 -13 10 -16 6 -3 10 1 10 9 0 9 -4 16 -10 16 -5 0
-10 -4 -10 -9z"/>
<path d="M1690 1171 c0 -5 6 -12 13 -14 6 -3 2 -6 -10 -6 -30 -1 -29 -15 1
-29 19 -8 26 -7 39 9 14 16 15 19 2 19 -8 0 -15 4 -15 9 0 5 -7 11 -15 15 -8
3 -15 1 -15 -3z"/>
<path d="M1860 1156 c0 -8 5 -18 10 -21 6 -3 10 -1 10 5 0 6 5 8 10 5 6 -3 10
-4 10 -1 0 3 -9 10 -20 16 -16 8 -20 8 -20 -4z"/>
<path d="M1880 1099 c0 -11 5 -17 10 -14 6 3 10 13 10 21 0 8 -4 14 -10 14 -5
0 -10 -9 -10 -21z"/>
<path d="M132 580 c0 -19 2 -27 5 -17 2 9 2 25 0 35 -3 9 -5 1 -5 -18z"/>
<path d="M210 380 c0 -5 7 -15 15 -24 9 -8 15 -33 15 -57 0 -24 6 -67 12 -96
l13 -53 62 0 c35 0 63 3 63 8 0 4 -20 27 -45 52 -24 25 -44 51 -45 58 0 6 -4
12 -10 12 -5 0 -10 7 -10 15 0 8 -4 15 -8 15 -4 0 -14 15 -20 34 -12 31 -42
58 -42 36z"/>
</g>
</svg>
